<mxfile host="app.diagrams.net" modified="2022-11-09T17:23:42.161Z" agent="5.0 (X11)" etag="tnW0O0hajzXbbiZ6IIiV" version="20.5.3" type="github">
  <diagram id="gKHhVE1iPBJTauDnVtQz" name="Page-1">
    <mxGraphModel dx="1408" dy="747" grid="1" gridSize="20" guides="1" tooltips="1" connect="1" arrows="1" fold="1" page="1" pageScale="1" pageWidth="1654" pageHeight="2336" math="0" shadow="0">
      <root>
        <mxCell id="0" />
        <mxCell id="1" parent="0" />
        <mxCell id="-dQODk_kFmiYLRuxT_So-1" value="&lt;div&gt;1&lt;/div&gt;" style="endArrow=open;html=1;endSize=12;startArrow=diamondThin;startSize=14;startFill=0;edgeStyle=orthogonalEdgeStyle;align=left;verticalAlign=bottom;rounded=0;entryX=0.5;entryY=0;entryDx=0;entryDy=0;exitX=0.5;exitY=1;exitDx=0;exitDy=0;" parent="1" source="WFzyRqZtoB-0MjAKmUww-7" target="WFzyRqZtoB-0MjAKmUww-9" edge="1">
          <mxGeometry x="0.0545" y="11" relative="1" as="geometry">
            <mxPoint x="330" y="192" as="sourcePoint" />
            <mxPoint x="330" y="247" as="targetPoint" />
            <mxPoint as="offset" />
          </mxGeometry>
        </mxCell>
        <mxCell id="-dQODk_kFmiYLRuxT_So-3" value="&lt;div&gt;1&lt;/div&gt;" style="endArrow=open;html=1;endSize=12;startArrow=diamondThin;startSize=14;startFill=0;edgeStyle=orthogonalEdgeStyle;align=left;verticalAlign=bottom;rounded=0;entryX=0.5;entryY=0;entryDx=0;entryDy=0;exitX=0.5;exitY=1;exitDx=0;exitDy=0;" parent="1" source="WFzyRqZtoB-0MjAKmUww-10" edge="1">
          <mxGeometry x="0.0545" y="11" relative="1" as="geometry">
            <mxPoint x="330" y="579" as="sourcePoint" />
            <mxPoint x="330" y="580" as="targetPoint" />
            <mxPoint as="offset" />
          </mxGeometry>
        </mxCell>
        <mxCell id="-dQODk_kFmiYLRuxT_So-4" value="&lt;div&gt;1&lt;/div&gt;" style="endArrow=open;html=1;endSize=12;startArrow=diamondThin;startSize=14;startFill=0;edgeStyle=orthogonalEdgeStyle;align=left;verticalAlign=bottom;rounded=0;exitX=0.5;exitY=1;exitDx=0;exitDy=0;entryX=1;entryY=0.5;entryDx=0;entryDy=0;" parent="1" source="WFzyRqZtoB-0MjAKmUww-12" target="WFzyRqZtoB-0MjAKmUww-14" edge="1">
          <mxGeometry x="0.8742" y="18" relative="1" as="geometry">
            <mxPoint x="330" y="680" as="sourcePoint" />
            <mxPoint x="120" y="680" as="targetPoint" />
            <mxPoint as="offset" />
          </mxGeometry>
        </mxCell>
        <mxCell id="-dQODk_kFmiYLRuxT_So-5" value="1" style="endArrow=open;html=1;endSize=12;startArrow=diamondThin;startSize=14;startFill=0;edgeStyle=orthogonalEdgeStyle;align=left;verticalAlign=bottom;rounded=0;entryX=1;entryY=0.5;entryDx=0;entryDy=0;exitX=0.5;exitY=1;exitDx=0;exitDy=0;" parent="1" source="WFzyRqZtoB-0MjAKmUww-12" target="WFzyRqZtoB-0MjAKmUww-15" edge="1">
          <mxGeometry x="0.9136" y="26" relative="1" as="geometry">
            <mxPoint x="330" y="680" as="sourcePoint" />
            <mxPoint x="292" y="856" as="targetPoint" />
            <mxPoint as="offset" />
          </mxGeometry>
        </mxCell>
        <mxCell id="-dQODk_kFmiYLRuxT_So-7" value="&lt;div&gt;1&lt;/div&gt;" style="endArrow=open;html=1;endSize=12;startArrow=diamondThin;startSize=14;startFill=0;edgeStyle=orthogonalEdgeStyle;align=left;verticalAlign=bottom;rounded=0;entryX=0.5;entryY=0;entryDx=0;entryDy=0;exitX=1;exitY=0.5;exitDx=0;exitDy=0;" parent="1" source="WFzyRqZtoB-0MjAKmUww-12" target="WFzyRqZtoB-0MjAKmUww-18" edge="1">
          <mxGeometry x="0.9052" y="20" relative="1" as="geometry">
            <mxPoint x="330" y="680" as="sourcePoint" />
            <mxPoint x="636" y="856" as="targetPoint" />
            <mxPoint as="offset" />
          </mxGeometry>
        </mxCell>
        <mxCell id="-dQODk_kFmiYLRuxT_So-8" value="n" style="endArrow=open;html=1;endSize=12;startArrow=diamondThin;startSize=14;startFill=0;edgeStyle=orthogonalEdgeStyle;align=left;verticalAlign=bottom;rounded=0;entryX=0.5;entryY=0;entryDx=0;entryDy=0;exitX=0.5;exitY=1;exitDx=0;exitDy=0;" parent="1" source="WFzyRqZtoB-0MjAKmUww-18" target="WFzyRqZtoB-0MjAKmUww-19" edge="1">
          <mxGeometry x="0.0545" y="11" relative="1" as="geometry">
            <mxPoint x="676" y="896" as="sourcePoint" />
            <mxPoint x="675.9899999999998" y="940" as="targetPoint" />
            <mxPoint as="offset" />
          </mxGeometry>
        </mxCell>
        <mxCell id="-dQODk_kFmiYLRuxT_So-10" value="n" style="endArrow=open;html=1;endSize=12;startArrow=diamondThin;startSize=14;startFill=0;edgeStyle=orthogonalEdgeStyle;align=left;verticalAlign=bottom;rounded=0;entryX=0.5;entryY=0;entryDx=0;entryDy=0;exitX=0.5;exitY=1;exitDx=0;exitDy=0;" parent="1" source="WFzyRqZtoB-0MjAKmUww-19" target="WFzyRqZtoB-0MjAKmUww-20" edge="1">
          <mxGeometry x="0.0545" y="11" relative="1" as="geometry">
            <mxPoint x="675.9899999999998" y="985" as="sourcePoint" />
            <mxPoint x="675.9899999999998" y="1023" as="targetPoint" />
            <mxPoint as="offset" />
          </mxGeometry>
        </mxCell>
        <mxCell id="-dQODk_kFmiYLRuxT_So-12" value="&lt;div&gt;1&lt;/div&gt;" style="endArrow=open;html=1;endSize=12;startArrow=diamondThin;startSize=14;startFill=0;edgeStyle=orthogonalEdgeStyle;align=left;verticalAlign=bottom;rounded=0;entryX=1;entryY=0.5;entryDx=0;entryDy=0;exitX=0.5;exitY=1;exitDx=0;exitDy=0;" parent="1" source="WFzyRqZtoB-0MjAKmUww-12" target="WFzyRqZtoB-0MjAKmUww-16" edge="1">
          <mxGeometry x="0.9331" y="18" relative="1" as="geometry">
            <mxPoint x="330" y="680" as="sourcePoint" />
            <mxPoint x="472" y="856" as="targetPoint" />
            <mxPoint as="offset" />
          </mxGeometry>
        </mxCell>
        <mxCell id="-dQODk_kFmiYLRuxT_So-13" value="&lt;div&gt;«interface»&lt;/div&gt;&lt;div&gt;&lt;b&gt;QuestionTypeInterface&lt;/b&gt;&lt;br&gt;&lt;b&gt;&lt;/b&gt;&lt;/div&gt;" style="html=1;" parent="1" vertex="1">
          <mxGeometry x="684" y="1000.47" width="169" height="50" as="geometry" />
        </mxCell>
        <mxCell id="-dQODk_kFmiYLRuxT_So-14" value="" style="endArrow=block;dashed=1;endFill=0;endSize=12;html=1;rounded=0;exitX=1;exitY=0.5;exitDx=0;exitDy=0;entryX=0;entryY=0.5;entryDx=0;entryDy=0;" parent="1" source="WFzyRqZtoB-0MjAKmUww-20" target="-dQODk_kFmiYLRuxT_So-13" edge="1">
          <mxGeometry width="160" relative="1" as="geometry">
            <mxPoint x="755.98" y="1041.825" as="sourcePoint" />
            <mxPoint x="1019" y="1057" as="targetPoint" />
          </mxGeometry>
        </mxCell>
        <mxCell id="WFzyRqZtoB-0MjAKmUww-7" value="&lt;p style=&quot;margin:0px;margin-top:4px;text-align:center;&quot;&gt;&lt;i&gt;&amp;lt;&amp;lt;Component&amp;gt;&amp;gt;&lt;/i&gt;&lt;br&gt;&lt;b&gt;App&lt;/b&gt;&lt;br&gt;&lt;/p&gt;&lt;hr size=&quot;1&quot;&gt;&lt;p style=&quot;margin:0px;margin-left:4px;&quot;&gt;+ &lt;br&gt;&lt;/p&gt;&lt;hr size=&quot;1&quot;&gt;&lt;p style=&quot;margin:0px;margin-left:4px;&quot;&gt;+ &lt;br&gt;&lt;/p&gt;" style="verticalAlign=top;align=left;overflow=fill;fontSize=12;fontFamily=Helvetica;html=1;rounded=0;sketch=0;" vertex="1" parent="1">
          <mxGeometry x="235" y="80" width="190" height="100" as="geometry" />
        </mxCell>
        <mxCell id="WFzyRqZtoB-0MjAKmUww-9" value="&lt;p style=&quot;margin:0px;margin-top:4px;text-align:center;&quot;&gt;&lt;i&gt;&amp;lt;&amp;lt;Component&amp;gt;&amp;gt;&lt;/i&gt;&lt;br&gt;&lt;b&gt;PersistQueryClientProvider&lt;/b&gt;&lt;br&gt;&lt;/p&gt;&lt;hr size=&quot;1&quot;&gt;&lt;p style=&quot;margin:0px;margin-left:4px;&quot;&gt;+ &lt;br&gt;&lt;/p&gt;&lt;hr size=&quot;1&quot;&gt;&lt;p style=&quot;margin:0px;margin-left:4px;&quot;&gt;+ &lt;br&gt;&lt;/p&gt;" style="verticalAlign=top;align=left;overflow=fill;fontSize=12;fontFamily=Helvetica;html=1;rounded=0;sketch=0;" vertex="1" parent="1">
          <mxGeometry x="235" y="240" width="190" height="103" as="geometry" />
        </mxCell>
        <mxCell id="WFzyRqZtoB-0MjAKmUww-10" value="&lt;p style=&quot;margin:0px;margin-top:4px;text-align:center;&quot;&gt;&lt;i&gt;&amp;lt;&amp;lt;Component&amp;gt;&amp;gt;&lt;/i&gt;&lt;br&gt;&lt;b&gt;Router&lt;/b&gt;&lt;br&gt;&lt;/p&gt;&lt;hr size=&quot;1&quot;&gt;&lt;p style=&quot;margin:0px;margin-left:4px;&quot;&gt;+ &lt;br&gt;&lt;/p&gt;&lt;hr size=&quot;1&quot;&gt;&lt;p style=&quot;margin:0px;margin-left:4px;&quot;&gt;+ &lt;br&gt;&lt;/p&gt;" style="verticalAlign=top;align=left;overflow=fill;fontSize=12;fontFamily=Helvetica;html=1;rounded=0;sketch=0;" vertex="1" parent="1">
          <mxGeometry x="235" y="400" width="190" height="103" as="geometry" />
        </mxCell>
        <mxCell id="WFzyRqZtoB-0MjAKmUww-11" value="1" style="endArrow=none;html=1;endSize=12;startArrow=diamondThin;startSize=14;startFill=0;edgeStyle=orthogonalEdgeStyle;align=left;verticalAlign=bottom;rounded=0;entryX=0.5;entryY=0;entryDx=0;entryDy=0;exitX=0.5;exitY=1;exitDx=0;exitDy=0;" edge="1" parent="1" source="WFzyRqZtoB-0MjAKmUww-9" target="WFzyRqZtoB-0MjAKmUww-10">
          <mxGeometry x="0.0545" y="11" relative="1" as="geometry">
            <mxPoint x="330" y="321.03" as="sourcePoint" />
            <mxPoint x="330" y="459" as="targetPoint" />
            <mxPoint as="offset" />
          </mxGeometry>
        </mxCell>
        <mxCell id="WFzyRqZtoB-0MjAKmUww-12" value="&lt;p style=&quot;margin:0px;margin-top:4px;text-align:center;&quot;&gt;&lt;i&gt;&amp;lt;&amp;lt;Component&amp;gt;&amp;gt;&lt;/i&gt;&lt;br&gt;&lt;b&gt;EditorPage&lt;/b&gt;&lt;br&gt;&lt;/p&gt;&lt;hr size=&quot;1&quot;&gt;&lt;p style=&quot;margin:0px;margin-left:4px;&quot;&gt;+ &lt;br&gt;&lt;/p&gt;&lt;hr size=&quot;1&quot;&gt;&lt;p style=&quot;margin:0px;margin-left:4px;&quot;&gt;+ &lt;br&gt;&lt;/p&gt;" style="verticalAlign=top;align=left;overflow=fill;fontSize=12;fontFamily=Helvetica;html=1;rounded=0;sketch=0;" vertex="1" parent="1">
          <mxGeometry x="235" y="580" width="190" height="103" as="geometry" />
        </mxCell>
        <mxCell id="WFzyRqZtoB-0MjAKmUww-14" value="&lt;p style=&quot;margin:0px;margin-top:4px;text-align:center;&quot;&gt;&lt;i&gt;&amp;lt;&amp;lt;Component&amp;gt;&amp;gt;&lt;/i&gt;&lt;br&gt;&lt;b&gt;TopBar&lt;/b&gt;&lt;br&gt;&lt;/p&gt;&lt;div&gt;&lt;br&gt;&lt;/div&gt;&lt;div&gt;&lt;br&gt;&lt;/div&gt;" style="verticalAlign=top;align=left;overflow=fill;fontSize=12;fontFamily=Helvetica;html=1;rounded=0;sketch=0;" vertex="1" parent="1">
          <mxGeometry x="100" y="780" width="190" height="44" as="geometry" />
        </mxCell>
        <mxCell id="WFzyRqZtoB-0MjAKmUww-15" value="&lt;p style=&quot;margin:0px;margin-top:4px;text-align:center;&quot;&gt;&lt;i&gt;&amp;lt;&amp;lt;Component&amp;gt;&amp;gt;&lt;/i&gt;&lt;br&gt;&lt;b&gt;SideBarLeft&lt;/b&gt;&lt;br&gt;&lt;/p&gt;&lt;div&gt;&lt;br&gt;&lt;/div&gt;&lt;div&gt;&lt;br&gt;&lt;/div&gt;" style="verticalAlign=top;align=left;overflow=fill;fontSize=12;fontFamily=Helvetica;html=1;rounded=0;sketch=0;" vertex="1" parent="1">
          <mxGeometry x="100" y="851.94" width="190" height="44" as="geometry" />
        </mxCell>
        <mxCell id="WFzyRqZtoB-0MjAKmUww-16" value="&lt;p style=&quot;margin:0px;margin-top:4px;text-align:center;&quot;&gt;&lt;i&gt;&amp;lt;&amp;lt;Component&amp;gt;&amp;gt;&lt;/i&gt;&lt;br&gt;&lt;b&gt;SideBarRight&lt;/b&gt;&lt;br&gt;&lt;/p&gt;&lt;div&gt;&lt;br&gt;&lt;/div&gt;&lt;div&gt;&lt;br&gt;&lt;/div&gt;" style="verticalAlign=top;align=left;overflow=fill;fontSize=12;fontFamily=Helvetica;html=1;rounded=0;sketch=0;" vertex="1" parent="1">
          <mxGeometry x="100" y="920" width="190" height="44" as="geometry" />
        </mxCell>
        <mxCell id="WFzyRqZtoB-0MjAKmUww-18" value="&lt;p style=&quot;margin:0px;margin-top:4px;text-align:center;&quot;&gt;&lt;i&gt;&amp;lt;&amp;lt;Component&amp;gt;&amp;gt;&lt;/i&gt;&lt;br&gt;&lt;b&gt;Survey&lt;/b&gt;&lt;br&gt;&lt;/p&gt;&lt;div&gt;&lt;br&gt;&lt;/div&gt;&lt;div&gt;&lt;br&gt;&lt;/div&gt;" style="verticalAlign=top;align=left;overflow=fill;fontSize=12;fontFamily=Helvetica;html=1;rounded=0;sketch=0;" vertex="1" parent="1">
          <mxGeometry x="410" y="780" width="190" height="44" as="geometry" />
        </mxCell>
        <mxCell id="WFzyRqZtoB-0MjAKmUww-19" value="&lt;p style=&quot;margin:0px;margin-top:4px;text-align:center;&quot;&gt;&lt;i&gt;&amp;lt;&amp;lt;Component&amp;gt;&amp;gt;&lt;/i&gt;&lt;br&gt;&lt;b&gt;QuestionGroup&lt;/b&gt;&lt;br&gt;&lt;/p&gt;&lt;div&gt;&lt;br&gt;&lt;/div&gt;&lt;div&gt;&lt;br&gt;&lt;/div&gt;" style="verticalAlign=top;align=left;overflow=fill;fontSize=12;fontFamily=Helvetica;html=1;rounded=0;sketch=0;" vertex="1" parent="1">
          <mxGeometry x="410" y="895.94" width="190" height="44" as="geometry" />
        </mxCell>
        <mxCell id="WFzyRqZtoB-0MjAKmUww-20" value="&lt;p style=&quot;margin:0px;margin-top:4px;text-align:center;&quot;&gt;&lt;i&gt;&amp;lt;&amp;lt;Component&amp;gt;&amp;gt;&lt;/i&gt;&lt;br&gt;&lt;b&gt;Question&lt;/b&gt;&lt;br&gt;&lt;/p&gt;&lt;div&gt;&lt;br&gt;&lt;/div&gt;&lt;div&gt;&lt;br&gt;&lt;/div&gt;" style="verticalAlign=top;align=left;overflow=fill;fontSize=12;fontFamily=Helvetica;html=1;rounded=0;sketch=0;" vertex="1" parent="1">
          <mxGeometry x="410" y="1003.47" width="190" height="44" as="geometry" />
        </mxCell>
        <mxCell id="WFzyRqZtoB-0MjAKmUww-21" value="Survey" style="swimlane;fontStyle=1;align=center;verticalAlign=top;childLayout=stackLayout;horizontal=1;startSize=26;horizontalStack=0;resizeParent=1;resizeParentMax=0;resizeLast=0;collapsible=1;marginBottom=0;rounded=0;sketch=0;" vertex="1" parent="1">
          <mxGeometry x="980" y="759" width="160" height="86" as="geometry" />
        </mxCell>
        <mxCell id="WFzyRqZtoB-0MjAKmUww-22" value="+" style="text;strokeColor=none;fillColor=none;align=left;verticalAlign=top;spacingLeft=4;spacingRight=4;overflow=hidden;rotatable=0;points=[[0,0.5],[1,0.5]];portConstraint=eastwest;rounded=0;sketch=0;" vertex="1" parent="WFzyRqZtoB-0MjAKmUww-21">
          <mxGeometry y="26" width="160" height="26" as="geometry" />
        </mxCell>
        <mxCell id="WFzyRqZtoB-0MjAKmUww-23" value="" style="line;strokeWidth=1;fillColor=none;align=left;verticalAlign=middle;spacingTop=-1;spacingLeft=3;spacingRight=3;rotatable=0;labelPosition=right;points=[];portConstraint=eastwest;strokeColor=inherit;rounded=0;sketch=0;" vertex="1" parent="WFzyRqZtoB-0MjAKmUww-21">
          <mxGeometry y="52" width="160" height="8" as="geometry" />
        </mxCell>
        <mxCell id="WFzyRqZtoB-0MjAKmUww-24" value="+" style="text;strokeColor=none;fillColor=none;align=left;verticalAlign=top;spacingLeft=4;spacingRight=4;overflow=hidden;rotatable=0;points=[[0,0.5],[1,0.5]];portConstraint=eastwest;rounded=0;sketch=0;" vertex="1" parent="WFzyRqZtoB-0MjAKmUww-21">
          <mxGeometry y="60" width="160" height="26" as="geometry" />
        </mxCell>
        <mxCell id="WFzyRqZtoB-0MjAKmUww-31" value="&lt;p style=&quot;margin:0px;margin-top:4px;text-align:center;&quot;&gt;&lt;i&gt;&amp;lt;&amp;lt;Module&amp;gt;&amp;gt;&lt;/i&gt;&lt;/p&gt;&lt;p style=&quot;margin:0px;margin-top:4px;text-align:center;&quot;&gt;&lt;b&gt;UseSurveyApi&lt;/b&gt;&lt;br&gt;&lt;/p&gt;&lt;hr size=&quot;1&quot;&gt;&amp;nbsp;+ &lt;span class=&quot;pl-en&quot;&gt;&lt;span data-hydro-click-hmac=&quot;816679ae7f5a10f2b2d8556c5dcf41eedccc889aa1ed6da6c42c15aa64d7b11f&quot; data-hydro-click=&quot;{&amp;quot;event_type&amp;quot;:&amp;quot;code_navigation.click_on_symbol&amp;quot;,&amp;quot;payload&amp;quot;:{&amp;quot;action&amp;quot;:&amp;quot;click_on_symbol&amp;quot;,&amp;quot;repository_id&amp;quot;:558297836,&amp;quot;ref&amp;quot;:&amp;quot;2eef20011ad93b5536ad85e4f877b4acde0c09f6&amp;quot;,&amp;quot;language&amp;quot;:&amp;quot;TypeScript&amp;quot;,&amp;quot;backend&amp;quot;:&amp;quot;ALEPH_FUZZY&amp;quot;,&amp;quot;code_nav_context&amp;quot;:&amp;quot;BLOB_VIEW&amp;quot;,&amp;quot;retry_backend&amp;quot;:&amp;quot;&amp;quot;,&amp;quot;cross_repo_results_included&amp;quot;:&amp;quot;CROSS_REPO_NOT_ENABLED&amp;quot;,&amp;quot;in_repo_result_count&amp;quot;:2,&amp;quot;cross_repo_result_count&amp;quot;:0,&amp;quot;originating_url&amp;quot;:&amp;quot;https://github.com/LimeSurvey/react-app-proto/find-definition?q=updateQuestionGroup&amp;amp;blob_path=src%2Fpage%2Feditor%2Fmodel%2FSurveyUseApi.ts&amp;amp;ref=2eef20011ad93b5536ad85e4f877b4acde0c09f6&amp;amp;language=TypeScript&amp;amp;row=50&amp;amp;col=8&amp;amp;code_nav_context=BLOB_VIEW&amp;quot;,&amp;quot;user_id&amp;quot;:607341}}&quot; class=&quot;pl-token&quot;&gt;updateQuestionGroup&lt;/span&gt;&lt;/span&gt;&lt;p style=&quot;margin:0px;margin-left:4px;&quot;&gt;&lt;span class=&quot;pl-en&quot;&gt;&lt;span data-hydro-click-hmac=&quot;816679ae7f5a10f2b2d8556c5dcf41eedccc889aa1ed6da6c42c15aa64d7b11f&quot; data-hydro-click=&quot;{&amp;quot;event_type&amp;quot;:&amp;quot;code_navigation.click_on_symbol&amp;quot;,&amp;quot;payload&amp;quot;:{&amp;quot;action&amp;quot;:&amp;quot;click_on_symbol&amp;quot;,&amp;quot;repository_id&amp;quot;:558297836,&amp;quot;ref&amp;quot;:&amp;quot;2eef20011ad93b5536ad85e4f877b4acde0c09f6&amp;quot;,&amp;quot;language&amp;quot;:&amp;quot;TypeScript&amp;quot;,&amp;quot;backend&amp;quot;:&amp;quot;ALEPH_FUZZY&amp;quot;,&amp;quot;code_nav_context&amp;quot;:&amp;quot;BLOB_VIEW&amp;quot;,&amp;quot;retry_backend&amp;quot;:&amp;quot;&amp;quot;,&amp;quot;cross_repo_results_included&amp;quot;:&amp;quot;CROSS_REPO_NOT_ENABLED&amp;quot;,&amp;quot;in_repo_result_count&amp;quot;:2,&amp;quot;cross_repo_result_count&amp;quot;:0,&amp;quot;originating_url&amp;quot;:&amp;quot;https://github.com/LimeSurvey/react-app-proto/find-definition?q=updateQuestionGroup&amp;amp;blob_path=src%2Fpage%2Feditor%2Fmodel%2FSurveyUseApi.ts&amp;amp;ref=2eef20011ad93b5536ad85e4f877b4acde0c09f6&amp;amp;language=TypeScript&amp;amp;row=50&amp;amp;col=8&amp;amp;code_nav_context=BLOB_VIEW&amp;quot;,&amp;quot;user_id&amp;quot;:607341}}&quot; class=&quot;pl-token&quot;&gt;+ &lt;/span&gt;&lt;/span&gt;&lt;span class=&quot;pl-en&quot;&gt;&lt;span data-hydro-click-hmac=&quot;ba54cacf6011c759935ba9d03cd1f3c79fa9ef744a64525fb1c19d44e2f6d7a7&quot; data-hydro-click=&quot;{&amp;quot;event_type&amp;quot;:&amp;quot;code_navigation.click_on_symbol&amp;quot;,&amp;quot;payload&amp;quot;:{&amp;quot;action&amp;quot;:&amp;quot;click_on_symbol&amp;quot;,&amp;quot;repository_id&amp;quot;:558297836,&amp;quot;ref&amp;quot;:&amp;quot;2eef20011ad93b5536ad85e4f877b4acde0c09f6&amp;quot;,&amp;quot;language&amp;quot;:&amp;quot;TypeScript&amp;quot;,&amp;quot;backend&amp;quot;:&amp;quot;ALEPH_FUZZY&amp;quot;,&amp;quot;code_nav_context&amp;quot;:&amp;quot;BLOB_VIEW&amp;quot;,&amp;quot;retry_backend&amp;quot;:&amp;quot;&amp;quot;,&amp;quot;cross_repo_results_included&amp;quot;:&amp;quot;CROSS_REPO_NOT_ENABLED&amp;quot;,&amp;quot;in_repo_result_count&amp;quot;:2,&amp;quot;cross_repo_result_count&amp;quot;:0,&amp;quot;originating_url&amp;quot;:&amp;quot;https://github.com/LimeSurvey/react-app-proto/find-definition?q=updateQuestion&amp;amp;blob_path=src%2Fpage%2Feditor%2Fmodel%2FSurveyUseApi.ts&amp;amp;ref=2eef20011ad93b5536ad85e4f877b4acde0c09f6&amp;amp;language=TypeScript&amp;amp;row=60&amp;amp;col=8&amp;amp;code_nav_context=BLOB_VIEW&amp;quot;,&amp;quot;user_id&amp;quot;:607341}}&quot; class=&quot;pl-token active&quot;&gt;updateQuestion&lt;/span&gt;&lt;/span&gt;&lt;/p&gt;&lt;p style=&quot;margin:0px;margin-left:4px;&quot;&gt;&lt;span class=&quot;pl-en&quot;&gt;&lt;span data-hydro-click-hmac=&quot;ba54cacf6011c759935ba9d03cd1f3c79fa9ef744a64525fb1c19d44e2f6d7a7&quot; data-hydro-click=&quot;{&amp;quot;event_type&amp;quot;:&amp;quot;code_navigation.click_on_symbol&amp;quot;,&amp;quot;payload&amp;quot;:{&amp;quot;action&amp;quot;:&amp;quot;click_on_symbol&amp;quot;,&amp;quot;repository_id&amp;quot;:558297836,&amp;quot;ref&amp;quot;:&amp;quot;2eef20011ad93b5536ad85e4f877b4acde0c09f6&amp;quot;,&amp;quot;language&amp;quot;:&amp;quot;TypeScript&amp;quot;,&amp;quot;backend&amp;quot;:&amp;quot;ALEPH_FUZZY&amp;quot;,&amp;quot;code_nav_context&amp;quot;:&amp;quot;BLOB_VIEW&amp;quot;,&amp;quot;retry_backend&amp;quot;:&amp;quot;&amp;quot;,&amp;quot;cross_repo_results_included&amp;quot;:&amp;quot;CROSS_REPO_NOT_ENABLED&amp;quot;,&amp;quot;in_repo_result_count&amp;quot;:2,&amp;quot;cross_repo_result_count&amp;quot;:0,&amp;quot;originating_url&amp;quot;:&amp;quot;https://github.com/LimeSurvey/react-app-proto/find-definition?q=updateQuestion&amp;amp;blob_path=src%2Fpage%2Feditor%2Fmodel%2FSurveyUseApi.ts&amp;amp;ref=2eef20011ad93b5536ad85e4f877b4acde0c09f6&amp;amp;language=TypeScript&amp;amp;row=60&amp;amp;col=8&amp;amp;code_nav_context=BLOB_VIEW&amp;quot;,&amp;quot;user_id&amp;quot;:607341}}&quot; class=&quot;pl-token active&quot;&gt;+ &lt;/span&gt;&lt;/span&gt;&lt;span class=&quot;pl-en&quot;&gt;&lt;span data-hydro-click-hmac=&quot;8276728e72873336dba437ef1546c3a66c1098e8a6d497cefe77d04c99601233&quot; data-hydro-click=&quot;{&amp;quot;event_type&amp;quot;:&amp;quot;code_navigation.click_on_symbol&amp;quot;,&amp;quot;payload&amp;quot;:{&amp;quot;action&amp;quot;:&amp;quot;click_on_symbol&amp;quot;,&amp;quot;repository_id&amp;quot;:558297836,&amp;quot;ref&amp;quot;:&amp;quot;2eef20011ad93b5536ad85e4f877b4acde0c09f6&amp;quot;,&amp;quot;language&amp;quot;:&amp;quot;TypeScript&amp;quot;,&amp;quot;backend&amp;quot;:&amp;quot;ALEPH_FUZZY&amp;quot;,&amp;quot;code_nav_context&amp;quot;:&amp;quot;BLOB_VIEW&amp;quot;,&amp;quot;retry_backend&amp;quot;:&amp;quot;&amp;quot;,&amp;quot;cross_repo_results_included&amp;quot;:&amp;quot;CROSS_REPO_NOT_ENABLED&amp;quot;,&amp;quot;in_repo_result_count&amp;quot;:1,&amp;quot;cross_repo_result_count&amp;quot;:0,&amp;quot;originating_url&amp;quot;:&amp;quot;https://github.com/LimeSurvey/react-app-proto/find-definition?q=updateTitle&amp;amp;blob_path=src%2Fpage%2Feditor%2Fmodel%2FSurveyUseApi.ts&amp;amp;ref=2eef20011ad93b5536ad85e4f877b4acde0c09f6&amp;amp;language=TypeScript&amp;amp;row=74&amp;amp;col=8&amp;amp;code_nav_context=BLOB_VIEW&amp;quot;,&amp;quot;user_id&amp;quot;:607341}}&quot; class=&quot;pl-token&quot;&gt;updateTitle&lt;/span&gt;&lt;/span&gt;&lt;span class=&quot;pl-en&quot;&gt;&lt;span data-hydro-click-hmac=&quot;ba54cacf6011c759935ba9d03cd1f3c79fa9ef744a64525fb1c19d44e2f6d7a7&quot; data-hydro-click=&quot;{&amp;quot;event_type&amp;quot;:&amp;quot;code_navigation.click_on_symbol&amp;quot;,&amp;quot;payload&amp;quot;:{&amp;quot;action&amp;quot;:&amp;quot;click_on_symbol&amp;quot;,&amp;quot;repository_id&amp;quot;:558297836,&amp;quot;ref&amp;quot;:&amp;quot;2eef20011ad93b5536ad85e4f877b4acde0c09f6&amp;quot;,&amp;quot;language&amp;quot;:&amp;quot;TypeScript&amp;quot;,&amp;quot;backend&amp;quot;:&amp;quot;ALEPH_FUZZY&amp;quot;,&amp;quot;code_nav_context&amp;quot;:&amp;quot;BLOB_VIEW&amp;quot;,&amp;quot;retry_backend&amp;quot;:&amp;quot;&amp;quot;,&amp;quot;cross_repo_results_included&amp;quot;:&amp;quot;CROSS_REPO_NOT_ENABLED&amp;quot;,&amp;quot;in_repo_result_count&amp;quot;:2,&amp;quot;cross_repo_result_count&amp;quot;:0,&amp;quot;originating_url&amp;quot;:&amp;quot;https://github.com/LimeSurvey/react-app-proto/find-definition?q=updateQuestion&amp;amp;blob_path=src%2Fpage%2Feditor%2Fmodel%2FSurveyUseApi.ts&amp;amp;ref=2eef20011ad93b5536ad85e4f877b4acde0c09f6&amp;amp;language=TypeScript&amp;amp;row=60&amp;amp;col=8&amp;amp;code_nav_context=BLOB_VIEW&amp;quot;,&amp;quot;user_id&amp;quot;:607341}}&quot; class=&quot;pl-token active&quot;&gt;&lt;/span&gt;&lt;/span&gt;&lt;span class=&quot;pl-en&quot;&gt;&lt;span data-hydro-click-hmac=&quot;816679ae7f5a10f2b2d8556c5dcf41eedccc889aa1ed6da6c42c15aa64d7b11f&quot; data-hydro-click=&quot;{&amp;quot;event_type&amp;quot;:&amp;quot;code_navigation.click_on_symbol&amp;quot;,&amp;quot;payload&amp;quot;:{&amp;quot;action&amp;quot;:&amp;quot;click_on_symbol&amp;quot;,&amp;quot;repository_id&amp;quot;:558297836,&amp;quot;ref&amp;quot;:&amp;quot;2eef20011ad93b5536ad85e4f877b4acde0c09f6&amp;quot;,&amp;quot;language&amp;quot;:&amp;quot;TypeScript&amp;quot;,&amp;quot;backend&amp;quot;:&amp;quot;ALEPH_FUZZY&amp;quot;,&amp;quot;code_nav_context&amp;quot;:&amp;quot;BLOB_VIEW&amp;quot;,&amp;quot;retry_backend&amp;quot;:&amp;quot;&amp;quot;,&amp;quot;cross_repo_results_included&amp;quot;:&amp;quot;CROSS_REPO_NOT_ENABLED&amp;quot;,&amp;quot;in_repo_result_count&amp;quot;:2,&amp;quot;cross_repo_result_count&amp;quot;:0,&amp;quot;originating_url&amp;quot;:&amp;quot;https://github.com/LimeSurvey/react-app-proto/find-definition?q=updateQuestionGroup&amp;amp;blob_path=src%2Fpage%2Feditor%2Fmodel%2FSurveyUseApi.ts&amp;amp;ref=2eef20011ad93b5536ad85e4f877b4acde0c09f6&amp;amp;language=TypeScript&amp;amp;row=50&amp;amp;col=8&amp;amp;code_nav_context=BLOB_VIEW&amp;quot;,&amp;quot;user_id&amp;quot;:607341}}&quot; class=&quot;pl-token&quot;&gt;&lt;/span&gt;&lt;/span&gt;&lt;/p&gt;" style="verticalAlign=top;align=left;overflow=fill;fontSize=12;fontFamily=Helvetica;html=1;rounded=0;sketch=0;" vertex="1" parent="1">
          <mxGeometry x="700" y="732" width="190" height="140" as="geometry" />
        </mxCell>
        <mxCell id="WFzyRqZtoB-0MjAKmUww-32" value="Use" style="endArrow=open;endSize=12;dashed=1;html=1;rounded=0;exitX=1;exitY=0.5;exitDx=0;exitDy=0;entryX=0;entryY=0.5;entryDx=0;entryDy=0;" edge="1" parent="1" source="WFzyRqZtoB-0MjAKmUww-18" target="WFzyRqZtoB-0MjAKmUww-31">
          <mxGeometry width="160" relative="1" as="geometry">
            <mxPoint x="540" y="820" as="sourcePoint" />
            <mxPoint x="700" y="820" as="targetPoint" />
          </mxGeometry>
        </mxCell>
        <mxCell id="WFzyRqZtoB-0MjAKmUww-33" value="Use" style="endArrow=open;endSize=12;dashed=1;html=1;rounded=0;exitX=1;exitY=0.5;exitDx=0;exitDy=0;" edge="1" parent="1" source="WFzyRqZtoB-0MjAKmUww-31" target="WFzyRqZtoB-0MjAKmUww-21">
          <mxGeometry width="160" relative="1" as="geometry">
            <mxPoint x="620" y="822" as="sourcePoint" />
            <mxPoint x="940" y="680" as="targetPoint" />
          </mxGeometry>
        </mxCell>
      </root>
    </mxGraphModel>
  </diagram>
</mxfile>
